<svg width="65" height="18" viewBox="0 0 65 18" fill="none" xmlns="http://www.w3.org/2000/svg">
<path d="M6.04277 3.43528C6.04277 3.68814 6.08212 3.89765 6.16083 4.06382C6.23954 4.22276 6.33614 4.36002 6.45063 4.47562C6.57227 4.58399 6.70107 4.67429 6.83702 4.74654C6.97297 4.81878 7.09819 4.89464 7.21268 4.97411C7.33432 5.05358 7.4345 5.14389 7.51321 5.24503C7.59192 5.34618 7.63127 5.47622 7.63127 5.63516C7.63127 5.90247 7.53825 6.10837 7.35221 6.25286C7.16617 6.39013 6.95151 6.45876 6.70822 6.45876C6.47925 6.45876 6.26459 6.38651 6.06423 6.24202C5.87104 6.09753 5.69931 5.90247 5.54904 5.65683C5.40593 5.40397 5.29145 5.11138 5.20558 4.77905C5.11972 4.43949 5.07678 4.08188 5.07678 3.7062C5.07678 3.24383 5.14834 2.80313 5.29145 2.38411C5.43456 1.95786 5.64564 1.58579 5.9247 1.26791C6.20376 0.942806 6.54723 0.686334 6.95509 0.498495C7.3701 0.310656 7.84236 0.216737 8.37186 0.216737C8.72963 0.216737 9.11961 0.278146 9.54178 0.400963C9.96395 0.516556 10.3825 0.704395 10.7976 0.964479C11.2197 1.22456 11.624 1.56051 12.0104 1.97231C12.404 2.38411 12.751 2.88621 13.0515 3.47863C13.3592 4.07104 13.6025 4.75738 13.7814 5.53763C13.9603 6.31788 14.0497 7.20289 14.0497 8.19265C14.0497 9.4714 13.8601 10.6165 13.4808 11.6279C13.1088 12.6394 12.6007 13.4991 11.9567 14.2071C11.3199 14.9079 10.5793 15.4461 9.73497 15.8218C8.89063 16.1902 7.9962 16.3745 7.05168 16.3745C6.11432 16.3745 5.21989 16.2119 4.36839 15.8868C3.5169 15.5617 2.76558 15.0668 2.11443 14.4022C1.47044 13.7303 0.955251 12.8814 0.568857 11.8555C0.189619 10.8224 0 9.60145 0 8.19265C0 7.10175 0.143109 6.10837 0.429326 5.21252C0.722699 4.31668 1.11267 3.52197 1.59924 2.82842C2.09297 2.13486 2.6654 1.55328 3.31655 1.08368C3.96769 0.606863 4.65819 0.245635 5.38804 0L5.75297 0.465984C5.54546 0.675497 5.35227 0.892234 5.17338 1.1162C4.9945 1.34016 4.82992 1.59663 4.67966 1.88561C4.52939 2.16737 4.39344 2.49609 4.2718 2.87176C4.15731 3.24022 4.06071 3.6773 3.982 4.18302C3.90329 4.68152 3.84247 5.25948 3.79954 5.91692C3.7566 6.57435 3.73514 7.33293 3.73514 8.19265C3.73514 9.30524 3.79238 10.2553 3.90687 11.0427C4.02851 11.8302 4.18235 12.4913 4.36839 13.0259C4.56159 13.5533 4.77626 13.9759 5.01238 14.2938C5.25567 14.6045 5.49895 14.8393 5.74224 14.9982C5.98552 15.1571 6.22165 15.2619 6.45063 15.3125C6.6796 15.3558 6.87995 15.3775 7.05168 15.3775C7.22341 15.3775 7.42019 15.3558 7.64201 15.3125C7.87098 15.2619 8.10353 15.1571 8.33966 14.9982C8.58295 14.8393 8.82265 14.6045 9.05878 14.2938C9.29491 13.9759 9.50242 13.5533 9.68131 13.0259C9.86735 12.4913 10.0176 11.8302 10.1321 11.0427C10.2466 10.2553 10.3038 9.30524 10.3038 8.19265C10.3038 7.21734 10.2609 6.36845 10.175 5.646C10.0892 4.92354 9.97468 4.30584 9.83157 3.7929C9.69562 3.27995 9.53462 2.86093 9.34858 2.53582C9.16969 2.20349 8.98007 1.94341 8.77972 1.75557C8.58653 1.56051 8.38975 1.42685 8.1894 1.35461C7.9962 1.28236 7.81732 1.24624 7.65274 1.24624C7.39515 1.24624 7.16617 1.30765 6.96582 1.43046C6.76547 1.55328 6.59731 1.71945 6.46136 1.92896C6.32541 2.13125 6.22165 2.36604 6.1501 2.63335C6.07854 2.89344 6.04277 3.16075 6.04277 3.43528Z" fill="black"/>
<path d="M22.5933 10.8043C22.5933 9.89404 22.5504 9.16797 22.4645 8.62613C22.3858 8.07706 22.2785 7.66165 22.1425 7.37989C22.0065 7.09091 21.8563 6.90307 21.6917 6.81638C21.5271 6.72246 21.359 6.6755 21.1873 6.6755C20.9797 6.6755 20.7937 6.73329 20.6291 6.84889C20.4717 6.95725 20.3322 7.08368 20.2105 7.22818C20.096 7.37267 19.9959 7.51716 19.91 7.66165C19.8313 7.80614 19.7633 7.91451 19.7061 7.98675V15.2258C19.7061 15.3197 19.6918 15.4353 19.6631 15.5725C19.6345 15.7026 19.563 15.829 19.4485 15.9518C19.3411 16.0674 19.1766 16.165 18.9548 16.2444C18.7401 16.3311 18.4431 16.3745 18.0639 16.3745C17.6847 16.3745 17.3841 16.3275 17.1623 16.2336C16.9477 16.1469 16.7831 16.0421 16.6686 15.9193C16.5541 15.7965 16.4826 15.6701 16.4539 15.54C16.4253 15.41 16.411 15.3052 16.411 15.2258V6.85972C16.411 6.65021 16.3609 6.4696 16.2607 6.31788C16.1677 6.15894 16.0067 6.07947 15.7777 6.07947C15.6561 6.07947 15.5523 6.10114 15.4665 6.14449C15.3806 6.18784 15.2876 6.24925 15.1874 6.32872L14.962 6.0578C15.1266 5.92053 15.3091 5.78688 15.5094 5.65683C15.7169 5.51957 15.9387 5.40036 16.1749 5.29922C16.411 5.19807 16.665 5.11499 16.9369 5.04997C17.2088 4.98495 17.495 4.95244 17.7956 4.95244C18.2607 4.95244 18.622 5.03191 18.8796 5.19085C19.1372 5.34256 19.3268 5.52679 19.4485 5.74353C19.5701 5.96026 19.6417 6.18784 19.6631 6.42625C19.6918 6.65744 19.7061 6.8525 19.7061 7.01144C19.9708 6.62854 20.2714 6.28537 20.6077 5.98194C20.7436 5.8519 20.8939 5.72547 21.0585 5.60265C21.2302 5.47983 21.4091 5.37146 21.5951 5.27754C21.7883 5.1764 21.9887 5.09693 22.1962 5.03913C22.4108 4.98134 22.6291 4.95244 22.8509 4.95244C23.3375 4.95244 23.7668 5.04636 24.1389 5.2342C24.5181 5.42203 24.8365 5.7363 25.0941 6.177C25.3517 6.6177 25.5485 7.20289 25.6844 7.93257C25.8204 8.65503 25.8884 9.55449 25.8884 10.6309C25.8884 11.6785 25.7954 12.5888 25.6093 13.3618C25.4233 14.1349 25.18 14.7923 24.8795 15.3341C24.5789 15.876 24.239 16.3167 23.8598 16.6562C23.4806 17.003 23.0978 17.2739 22.7114 17.469C22.325 17.6641 21.9529 17.7977 21.5951 17.87C21.2445 17.9494 20.9404 17.9928 20.6828 18L20.5647 17.5557C20.7794 17.5051 20.9762 17.4256 21.1551 17.3173C21.3411 17.2089 21.5092 17.05 21.6595 16.8405C21.8098 16.6309 21.9422 16.3672 22.0566 16.0494C22.1711 15.7243 22.2677 15.3197 22.3464 14.8356C22.4323 14.3516 22.4931 13.7809 22.5289 13.1234C22.5718 12.4588 22.5933 11.6857 22.5933 10.8043Z" fill="black"/>
<path d="M31.534 15.2258C31.534 15.3197 31.5161 15.4353 31.4804 15.5725C31.4517 15.7026 31.3766 15.829 31.255 15.9518C31.1405 16.0674 30.9723 16.165 30.7505 16.2444C30.5287 16.3311 30.2281 16.3745 29.8489 16.3745C29.4697 16.3745 29.1727 16.3275 28.9581 16.2336C28.7434 16.1469 28.5824 16.0421 28.4751 15.9193C28.3677 15.7965 28.2998 15.6701 28.2711 15.54C28.2497 15.41 28.2389 15.3052 28.2389 15.2258V6.85972C28.2389 6.65021 28.1888 6.4696 28.0887 6.31788C27.9957 6.15894 27.8347 6.07947 27.6057 6.07947C27.484 6.07947 27.3803 6.10114 27.2944 6.14449C27.2086 6.18784 27.1155 6.24925 27.0154 6.32872L26.79 6.0578C26.9545 5.92053 27.137 5.78688 27.3374 5.65683C27.5449 5.51957 27.7667 5.40036 28.0028 5.29922C28.2389 5.19807 28.493 5.11499 28.7649 5.04997C29.0368 4.98495 29.323 4.95244 29.6235 4.95244C30.0886 4.95244 30.45 5.01746 30.7076 5.1475C30.9652 5.27032 31.1548 5.42565 31.2764 5.61349C31.3981 5.7941 31.4696 5.98916 31.4911 6.19868C31.5197 6.40819 31.534 6.59241 31.534 6.75135V15.2258ZM27.9062 2.48164C27.9062 2.27935 27.9491 2.0879 28.035 1.90728C28.128 1.71945 28.2532 1.55689 28.4107 1.41963C28.5752 1.28236 28.7613 1.17399 28.9688 1.09452C29.1835 1.01505 29.416 0.975316 29.6664 0.975316C29.9097 0.975316 30.1351 1.01505 30.3426 1.09452C30.5573 1.17399 30.7433 1.28236 30.9008 1.41963C31.0582 1.55689 31.1798 1.71945 31.2657 1.90728C31.3587 2.0879 31.4052 2.27935 31.4052 2.48164C31.4052 2.69115 31.3587 2.88621 31.2657 3.06683C31.1798 3.24744 31.0582 3.40638 30.9008 3.54365C30.7433 3.67369 30.5573 3.77845 30.3426 3.85792C30.1351 3.93739 29.9097 3.97712 29.6664 3.97712C29.416 3.97712 29.1835 3.93739 28.9688 3.85792C28.7613 3.77845 28.5752 3.67369 28.4107 3.54365C28.2532 3.40638 28.128 3.24744 28.035 3.06683C27.9491 2.88621 27.9062 2.69115 27.9062 2.48164Z" fill="black"/>
<path d="M39.0794 10.5876C39.0794 10.407 39.0222 10.2697 38.9077 10.1758C38.7932 10.0819 38.6465 10.0349 38.4676 10.0349C38.2172 10.0349 37.9775 10.0927 37.7485 10.2083C37.5267 10.3239 37.3299 10.4937 37.1582 10.7176C36.9865 10.9416 36.8505 11.2197 36.7503 11.5521C36.6502 11.8772 36.6001 12.2565 36.6001 12.6899C36.6001 13.109 36.6287 13.4557 36.6859 13.7303C36.7503 14.0048 36.8326 14.2252 36.9328 14.3913C37.0401 14.5503 37.1618 14.6623 37.2977 14.7273C37.4337 14.7923 37.5768 14.8248 37.727 14.8248C37.9131 14.8248 38.0884 14.7778 38.253 14.6839C38.4175 14.5828 38.5607 14.4564 38.6823 14.3046C38.8039 14.1529 38.9005 13.9831 38.9721 13.7953C39.0436 13.6075 39.0794 13.4196 39.0794 13.2318V10.5876ZM37.3729 5.84106C37.1296 5.84106 36.9042 5.86996 36.6967 5.92775C36.4892 5.98555 36.3103 6.0578 36.16 6.14449C36.0097 6.23119 35.8917 6.32872 35.8058 6.43709C35.7199 6.53823 35.677 6.63576 35.677 6.72968C35.677 6.83805 35.7307 6.91752 35.838 6.96809C35.9525 7.01144 36.0777 7.06562 36.2137 7.13064C36.3496 7.18844 36.4713 7.27514 36.5786 7.39073C36.6931 7.4991 36.7503 7.66887 36.7503 7.90006C36.7503 8.05178 36.7181 8.19265 36.6537 8.3227C36.5965 8.44551 36.5142 8.5575 36.4069 8.65864C36.3067 8.75256 36.1851 8.82842 36.0419 8.88621C35.906 8.93678 35.7629 8.96207 35.6126 8.96207C35.2119 8.96207 34.8863 8.8248 34.6359 8.55027C34.3926 8.27574 34.271 7.9109 34.271 7.45575C34.271 7.01505 34.3855 6.63937 34.6144 6.32872C34.8434 6.01084 35.1404 5.75075 35.5053 5.54846C35.8774 5.34618 36.296 5.19807 36.7611 5.10415C37.2262 5.00301 37.6913 4.95244 38.1564 4.95244C38.7145 4.95244 39.2476 5.01385 39.7556 5.13666C40.2636 5.25948 40.7109 5.45455 41.0973 5.72185C41.4908 5.98916 41.8021 6.32872 42.031 6.74052C42.2672 7.15232 42.3852 7.65081 42.3852 8.236V14.3588C42.3852 14.4238 42.3888 14.4961 42.396 14.5756C42.4031 14.655 42.421 14.7273 42.4496 14.7923C42.4783 14.8573 42.5212 14.9115 42.5784 14.9548C42.6357 14.9982 42.718 15.0199 42.8253 15.0199C42.9541 15.0199 43.0722 14.9729 43.1795 14.879C43.294 14.7778 43.3942 14.6767 43.48 14.5756L43.7483 14.8031C43.641 14.9548 43.5122 15.121 43.362 15.3016C43.2117 15.4822 43.0292 15.652 42.8146 15.811C42.5999 15.9699 42.3495 16.1036 42.0632 16.2119C41.777 16.3203 41.4515 16.3745 41.0865 16.3745C40.6357 16.3745 40.235 16.2408 39.8844 15.9735C39.5338 15.699 39.3048 15.28 39.1975 14.7164C38.9685 15.0271 38.7288 15.2872 38.4784 15.4967C38.2351 15.7062 37.9846 15.876 37.727 16.006C37.4695 16.1361 37.2083 16.23 36.9435 16.2878C36.6859 16.3456 36.4248 16.3745 36.16 16.3745C35.8165 16.3745 35.4838 16.3203 35.1618 16.2119C34.8398 16.1036 34.55 15.9338 34.2924 15.7026C34.042 15.4642 33.8381 15.1571 33.6806 14.7815C33.5304 14.4058 33.4552 13.947 33.4552 13.4052C33.4552 12.7477 33.584 12.2095 33.8416 11.7905C34.0992 11.3715 34.4355 11.0211 34.8506 10.7393C35.2727 10.4503 35.7486 10.2047 36.2781 10.0024C36.8147 9.80012 37.3621 9.587 37.9202 9.36303C38.3353 9.19687 38.6358 8.95123 38.8218 8.62613C39.015 8.2938 39.1116 7.95424 39.1116 7.60747C39.1116 7.07285 38.9542 6.6466 38.6394 6.32872C38.3317 6.00361 37.9095 5.84106 37.3729 5.84106Z" fill="black"/>
<path d="M47.9665 11.227C47.9665 11.4582 47.9987 11.711 48.0631 11.9856C48.1346 12.2529 48.2348 12.5238 48.3636 12.7983C48.4924 13.0728 48.6498 13.3365 48.8359 13.5894C49.0291 13.835 49.2473 14.0554 49.4906 14.2505C49.741 14.4455 50.0165 14.6008 50.317 14.7164C50.6176 14.832 50.9467 14.8898 51.3045 14.8898C51.5549 14.8898 51.7875 14.8609 52.0021 14.8031C52.2168 14.7453 52.4172 14.6659 52.6032 14.5647C52.7892 14.4636 52.9681 14.348 53.1399 14.2179C53.3116 14.0807 53.4833 13.9362 53.6551 13.7845L53.9234 14.0446C53.7588 14.2685 53.5477 14.5141 53.2901 14.7815C53.0325 15.0488 52.7213 15.3016 52.3563 15.54C51.9914 15.7712 51.5657 15.9663 51.0791 16.1252C50.5925 16.2769 50.038 16.3528 49.4155 16.3528C48.7929 16.3528 48.1847 16.2408 47.5908 16.0169C47.0041 15.7857 46.4817 15.4425 46.0238 14.9874C45.5658 14.5322 45.1973 13.9651 44.9183 13.286C44.6464 12.6069 44.5104 11.8122 44.5104 10.9019C44.5104 10.2444 44.5927 9.64118 44.7573 9.09211C44.9218 8.54305 45.1437 8.04816 45.4227 7.60747C45.7089 7.16677 46.0381 6.78025 46.4102 6.44792C46.7894 6.11559 47.1865 5.84106 47.6016 5.62432C48.0166 5.40036 48.4387 5.2342 48.8681 5.12583C49.3045 5.01023 49.7231 4.95244 50.1238 4.95244C50.6533 4.95244 51.1149 5.01023 51.5084 5.12583C51.902 5.24142 52.2275 5.39675 52.4851 5.59181C52.7499 5.78688 52.9467 6.01445 53.0755 6.27453C53.2043 6.52739 53.2687 6.7947 53.2687 7.07646C53.2687 7.41601 53.1721 7.72306 52.9789 7.99759C52.7857 8.2649 52.5281 8.4997 52.2061 8.70199L47.9665 11.227ZM50.1238 9.02709C50.2169 8.9693 50.292 8.91511 50.3492 8.86454C50.4136 8.80674 50.4637 8.74172 50.4995 8.66948C50.5353 8.59001 50.5603 8.49609 50.5746 8.38772C50.5961 8.27213 50.6068 8.13125 50.6068 7.96508C50.6068 7.78447 50.5854 7.58579 50.5424 7.36905C50.5067 7.14509 50.4423 6.93558 50.3492 6.74052C50.2562 6.54545 50.1382 6.3829 49.995 6.25286C49.8519 6.12282 49.6802 6.0578 49.4799 6.0578C49.2223 6.0578 49.0004 6.13727 48.8144 6.29621C48.6355 6.44792 48.4852 6.6466 48.3636 6.89223C48.2491 7.13787 48.1561 7.41963 48.0845 7.73751C48.0201 8.04816 47.9701 8.36243 47.9343 8.68031C47.8985 8.99819 47.877 9.30524 47.8699 9.60145C47.8627 9.89043 47.8591 10.1361 47.8591 10.3384L50.1238 9.02709Z" fill="black"/>
<path d="M60.1593 9.00542L61.3507 7.21734C61.4509 7.0584 61.5332 6.89946 61.5976 6.74052C61.6691 6.57435 61.7264 6.41541 61.7693 6.2637C61.8194 6.10476 61.8588 5.96026 61.8874 5.83022C61.9232 5.69296 61.9554 5.57736 61.984 5.48344C62.0412 5.29561 62.1378 5.16195 62.2738 5.08248C62.4097 4.99579 62.6208 4.95244 62.907 4.95244C63.0716 4.95244 63.2147 4.98134 63.3364 5.03913C63.4652 5.09693 63.5296 5.19085 63.5296 5.32089C63.5296 5.5304 63.458 5.79049 63.3149 6.10114C63.1718 6.40458 62.9786 6.72968 62.7353 7.07646L60.7389 9.9699L63.5296 14.6731C63.6011 14.8031 63.6655 14.9079 63.7228 14.9874C63.7872 15.0668 63.848 15.1282 63.9052 15.1716C63.9625 15.2149 64.0197 15.2474 64.077 15.2691C64.1342 15.2836 64.1986 15.2908 64.2701 15.2908C64.3489 15.2908 64.4276 15.2727 64.5063 15.2366C64.585 15.1933 64.6744 15.1318 64.7746 15.0524L65 15.3125C64.8354 15.4497 64.6637 15.587 64.4848 15.7243C64.3059 15.8543 64.1056 15.9699 63.8838 16.071C63.6691 16.1722 63.4294 16.2553 63.1646 16.3203C62.907 16.3853 62.6172 16.4178 62.2952 16.4178C61.9303 16.4178 61.6155 16.3528 61.3507 16.2228C61.086 16.0999 60.8534 15.9446 60.6531 15.7568C60.4599 15.5689 60.2917 15.3666 60.1486 15.1499C60.0127 14.9332 59.8946 14.7345 59.7944 14.5539L58.2274 11.9205L56.7784 14.1096C56.6782 14.2685 56.5924 14.4311 56.5208 14.5972C56.4564 14.7562 56.3992 14.9151 56.3491 15.0741C56.3061 15.2258 56.2668 15.3703 56.231 15.5075C56.2024 15.6376 56.1738 15.7495 56.1451 15.8435C56.0879 16.0313 55.9913 16.165 55.8554 16.2444C55.7194 16.3311 55.5083 16.3745 55.2221 16.3745C55.0575 16.3745 54.9108 16.3456 54.782 16.2878C54.6604 16.23 54.5996 16.1361 54.5996 16.006C54.5996 15.7965 54.664 15.5545 54.7928 15.28C54.9216 14.9982 55.1219 14.655 55.3938 14.2505L57.68 10.9669L55.104 6.5888C55.0182 6.44431 54.9359 6.32511 54.8572 6.23119C54.7856 6.13004 54.6783 6.07947 54.5352 6.07947C54.3992 6.07947 54.2311 6.16255 54.0307 6.32872L53.8161 6.0578C53.9806 5.92053 54.1595 5.78688 54.3527 5.65683C54.5459 5.51957 54.7534 5.40036 54.9752 5.29922C55.2042 5.19807 55.4511 5.11499 55.7158 5.04997C55.9806 4.98495 56.2632 4.95244 56.5637 4.95244C56.9 4.95244 57.1827 5.00662 57.4117 5.11499C57.6478 5.21614 57.8446 5.34618 58.002 5.50512C58.1666 5.66406 58.3061 5.84106 58.4206 6.03612C58.5351 6.23119 58.646 6.41541 58.7533 6.5888L60.1593 9.00542Z" fill="black"/>
</svg>
