<svg width="24" height="24" viewBox="0 0 24 24" fill="none" xmlns="http://www.w3.org/2000/svg">
<path d="M1.9707 15.5828V22.3885C1.9707 22.4835 2.00844 22.5746 2.0756 22.6417C2.14277 22.7089 2.23386 22.7467 2.32886 22.7467H4.47603C4.73202 22.746 4.97937 22.654 5.17361 22.4872C5.36785 22.3205 5.49623 22.0899 5.53567 21.837L8.95567 23.4139C9.77622 23.78 10.6856 23.8994 11.5729 23.7575C12.4601 23.6156 13.2869 23.2185 13.9523 22.6146L18.5096 18.4874C19.274 17.8403 18.7043 16.5246 17.7308 16.6083V12.7175C17.7305 12.4326 17.6171 12.1594 17.4157 11.958C17.2142 11.7565 16.9411 11.6432 16.6562 11.6429C15.3616 11.6449 12.5537 11.6415 11.2834 11.6429H8.05987C7.77497 11.6432 7.50183 11.7565 7.30037 11.958C7.09891 12.1594 6.98559 12.4326 6.98527 12.7175V15.9529C6.97632 15.9311 5.55155 15.9446 5.4861 15.9411C5.4122 15.7321 5.27546 15.551 5.09463 15.4227C4.91381 15.2945 4.69773 15.2252 4.47603 15.2246H2.32881C2.28177 15.2246 2.23519 15.2338 2.19173 15.2518C2.14828 15.2699 2.10879 15.2963 2.07554 15.3295C2.04228 15.3628 2.01591 15.4023 1.99792 15.4458C1.97993 15.4892 1.97068 15.5358 1.9707 15.5828ZM13.0745 12.3591V13.8298L12.5602 13.4783C12.262 13.2632 11.9279 13.6698 11.6417 13.8298V12.3591H13.0745ZM8.05992 12.3591H10.9254V14.5083C10.9385 14.6136 10.9733 14.7198 11.0632 14.7837C11.1229 14.8303 11.1955 14.8573 11.2712 14.8609C11.3468 14.8646 11.4217 14.8447 11.4856 14.8041L12.3582 14.2078L13.2305 14.8041C13.3018 14.8517 13.3879 14.8723 13.4731 14.862C13.5582 14.8517 13.6369 14.8113 13.6949 14.748C13.7582 14.6865 13.777 14.5923 13.7907 14.5083V12.3591H16.6564C16.7514 12.3593 16.8424 12.3971 16.9095 12.4642C16.9767 12.5314 17.0145 12.6224 17.0146 12.7173V16.862L11.7438 19.4327C12.3802 18.4166 11.5702 16.9816 10.3672 17.0157H7.96821C7.90272 16.8261 7.82892 16.5328 7.70167 16.3775V12.7175C7.70176 12.6225 7.73952 12.5314 7.80667 12.4642C7.87383 12.3971 7.96493 12.3593 8.05992 12.3591ZM7.17686 16.903C7.31107 17.215 7.32266 17.735 7.70943 17.732H10.3679C10.6054 17.732 10.8331 17.8263 11.001 17.9943C11.1689 18.1622 11.2633 18.3899 11.2633 18.6274C11.2633 18.8649 11.1689 19.0926 11.001 19.2605C10.8331 19.4284 10.6054 19.5228 10.3679 19.5228H8.77623C8.72885 19.5222 8.68183 19.5311 8.63791 19.5489C8.59398 19.5666 8.55401 19.5929 8.52032 19.6262C8.48662 19.6595 8.45987 19.6992 8.44162 19.7429C8.42336 19.7867 8.41396 19.8336 8.41396 19.8809C8.41396 19.9283 8.42336 19.9752 8.44162 20.019C8.45987 20.0627 8.48662 20.1024 8.52032 20.1357C8.55401 20.169 8.59398 20.1953 8.63791 20.213C8.68183 20.2308 8.72885 20.2397 8.77623 20.2391H11.6417C11.6961 20.2391 11.7498 20.2267 11.7987 20.2029C11.872 20.1673 17.6614 17.3433 17.6233 17.3621C17.7005 17.319 17.7914 17.3074 17.877 17.3297C17.9626 17.3521 18.0363 17.4067 18.0826 17.4821C18.1351 17.5536 18.1587 17.6424 18.1485 17.7306C18.1382 17.8188 18.095 17.8999 18.0274 17.9575L13.4712 22.0836C12.9095 22.5938 12.2116 22.9296 11.4624 23.05C10.7132 23.1704 9.94521 23.0702 9.25198 22.7617L5.5522 21.0559V16.6577H6.83716C6.91242 16.6575 6.9858 16.6812 7.04681 16.7252C7.10782 16.7693 7.15334 16.8315 7.17686 16.903ZM2.68701 15.941H4.47603C4.57147 15.9412 4.66296 15.9791 4.73045 16.0466C4.79794 16.1141 4.8359 16.2056 4.83603 16.3011V21.67C4.83587 21.7654 4.79789 21.8569 4.73041 21.9244C4.66293 21.9918 4.57146 22.0298 4.47603 22.03H2.68701V15.941Z" fill="black"/>
<path d="M13.7906 17.0152H14.8651C15.3332 17.0132 15.3338 16.3009 14.8651 16.2988H13.7906C13.3227 16.3009 13.3221 17.0132 13.7906 17.0152Z" fill="black"/>
<path d="M22.0295 8.06055V2.68773C22.0295 2.59274 21.9918 2.50164 21.9246 2.43446C21.8574 2.36729 21.7663 2.32954 21.6714 2.32953C21.4181 2.35122 19.3583 2.26953 19.1683 2.39415L16.0683 0.654147C15.3943 0.271396 14.6146 0.116883 13.8456 0.213673C13.0765 0.310463 12.3594 0.653365 11.8013 1.19119L10.1511 2.78987L7.49843 1.14864L6.27867 0.393932C6.23829 0.369245 6.19343 0.352766 6.14667 0.345436C6.0999 0.338107 6.05215 0.340071 6.00615 0.351217C5.96015 0.362363 5.91679 0.382472 5.87857 0.410393C5.84035 0.438313 5.80801 0.473498 5.7834 0.513932C5.36035 1.21593 4.45172 2.72507 4.02309 3.43639L3.27604 4.67646C3.22767 4.7567 3.21266 4.85271 3.23423 4.94389C3.2558 5.03507 3.31223 5.11418 3.39143 5.16426L10.7754 9.82819C12.6071 10.9497 12.0731 11.0516 13.2604 9.27615C13.2604 9.27615 13.2608 9.27587 13.2609 9.27564C13.2611 9.27541 13.9367 8.22845 13.9367 8.22818L14.6258 8.64601C15.0213 8.88779 15.4768 9.01372 15.9403 9.00947C16.4039 9.00522 16.8569 8.87096 17.248 8.62196L18.552 7.79825C18.638 7.98321 18.775 8.13981 18.9468 8.24973C19.1187 8.35965 19.3183 8.41832 19.5222 8.41889H21.6714C21.7184 8.41887 21.765 8.40959 21.8085 8.39158C21.8519 8.37356 21.8914 8.34717 21.9247 8.31389C21.9579 8.28061 21.9843 8.24111 22.0023 8.19765C22.0203 8.15418 22.0295 8.10759 22.0295 8.06055ZM6.20995 1.19392L6.76541 1.53758C6.64337 1.64196 6.49875 1.71658 6.34296 1.75556C6.18717 1.79454 6.02445 1.79682 5.86763 1.76221L6.20995 1.19392ZM4.41189 4.1791C4.51586 4.30562 4.5895 4.45425 4.62716 4.61362C4.66482 4.77298 4.66552 4.93886 4.62918 5.09853L4.07072 4.74573L4.41189 4.1791ZM12.0708 9.79889L11.5119 9.44595C11.638 9.34016 11.7874 9.26586 11.9479 9.22917C12.1083 9.19249 12.2752 9.19448 12.4347 9.23498L12.0708 9.79889ZM12.8348 8.61485C12.173 8.33558 11.3615 8.52342 10.8834 9.0487L5.25595 5.49444C5.38203 5.15971 5.4058 4.79506 5.32423 4.4468C5.24266 4.09853 5.05944 3.78237 4.79783 3.53844L5.48663 2.39484C6.14538 2.64795 6.933 2.44829 7.3974 1.92869L11.2546 4.3153C10.4061 4.78049 10.4021 6.12407 11.2482 6.59802L13.3239 7.85664L12.8348 8.61485ZM16.8652 8.01633C16.5867 8.19373 16.264 8.28941 15.9338 8.29248C15.6037 8.29555 15.2792 8.20588 14.9975 8.03369L11.6199 5.98561C11.5491 5.94276 11.4877 5.88595 11.4395 5.81863C11.3913 5.75132 11.3574 5.6749 11.3397 5.59404C11.208 5.08958 11.8028 4.63833 12.2443 4.9303L14.488 6.31598C14.6418 6.42342 14.8656 6.5533 15.0467 6.43242C15.279 6.31072 15.2765 5.95819 15.0541 5.82361L10.7794 3.17862L12.2997 1.70567C12.7464 1.2751 13.3205 1.00068 13.9362 0.923449C14.5518 0.846213 15.1759 0.970307 15.7151 1.27718L18.5854 2.88795C18.4964 3.04512 18.4491 3.22242 18.4479 3.40302V7.01687L16.8652 8.01633ZM21.3132 7.70249H19.5224C19.4275 7.70236 19.3364 7.66459 19.2693 7.59745C19.2021 7.53031 19.1644 7.43929 19.1642 7.34433V3.40321C19.1643 3.30847 19.202 3.21763 19.269 3.15064C19.336 3.08365 19.4268 3.04597 19.5215 3.04589H21.3132V7.70249Z" fill="black"/>
<path d="M9.13477 4.11914C7.24131 4.17914 7.24177 6.92474 9.13477 6.98465C11.0282 6.92446 11.0278 4.17905 9.13477 4.11914ZM9.13477 6.26825C8.19323 6.25154 8.19323 4.85211 9.13477 4.83549C10.0762 4.85225 10.0761 6.25168 9.13477 6.26825Z" fill="black"/>
<path d="M20.4928 6.8819C20.6474 6.68773 20.6121 6.49933 20.4928 6.37329C20.3039 6.22292 20.1153 6.24752 19.9842 6.37329C19.9179 6.44136 19.8809 6.5326 19.8809 6.6276C19.8809 6.72259 19.9179 6.81383 19.9842 6.8819C20.1118 7.00273 20.3027 7.03333 20.4928 6.8819Z" fill="black"/>
<path d="M3.50748 20.701C3.38587 20.8285 3.35481 21.0179 3.50748 21.2096C3.55778 21.2599 3.62186 21.2942 3.69162 21.3081C3.76138 21.3219 3.83369 21.3148 3.8994 21.2876C3.96512 21.2604 4.02128 21.2143 4.0608 21.1551C4.10031 21.096 4.1214 21.0265 4.1214 20.9553C4.1214 20.8842 4.10031 20.8147 4.0608 20.7555C4.02128 20.6964 3.96512 20.6503 3.8994 20.6231C3.83369 20.5959 3.76138 20.5887 3.69162 20.6026C3.62186 20.6165 3.55778 20.6507 3.50748 20.701Z" fill="black"/>
</svg>
