<svg width="24" height="24" viewBox="0 0 24 24" fill="none" xmlns="http://www.w3.org/2000/svg">
<path d="M22 12.75H2C1.80109 12.75 1.61032 12.671 1.46967 12.5303C1.32902 12.3897 1.25 12.1989 1.25 12C1.25 11.8011 1.32902 11.6103 1.46967 11.4697C1.61032 11.329 1.80109 11.25 2 11.25H22C22.1989 11.25 22.3897 11.329 22.5303 11.4697C22.671 11.6103 22.75 11.8011 22.75 12C22.75 12.1989 22.671 12.3897 22.5303 12.5303C22.3897 12.671 22.1989 12.75 22 12.75Z" fill="black"/>
<path d="M9.99975 20.7492C9.90125 20.7494 9.80367 20.7301 9.71269 20.6923C9.62171 20.6546 9.53913 20.5991 9.46975 20.5292L1.46975 12.5292C1.40009 12.4596 1.34482 12.377 1.30712 12.2861C1.26941 12.1951 1.25 12.0976 1.25 11.9992C1.25 11.9007 1.26941 11.8032 1.30712 11.7123C1.34482 11.6214 1.40009 11.5387 1.46975 11.4692L9.46975 3.46918C9.53842 3.39549 9.62122 3.33639 9.71322 3.2954C9.80521 3.2544 9.90453 3.23236 10.0052 3.23059C10.1059 3.22881 10.206 3.24733 10.2994 3.28505C10.3927 3.32278 10.4776 3.37892 10.5488 3.45014C10.62 3.52136 10.6762 3.60619 10.7139 3.69958C10.7516 3.79297 10.7701 3.893 10.7683 3.9937C10.7666 4.0944 10.7445 4.19372 10.7035 4.28572C10.6625 4.37771 10.6034 4.46052 10.5298 4.52918L3.06075 11.9992L10.5298 19.4692C10.6345 19.5741 10.7058 19.7076 10.7347 19.853C10.7636 19.9984 10.7488 20.1491 10.692 20.2861C10.6353 20.4231 10.5393 20.5401 10.4161 20.6226C10.2929 20.705 10.148 20.749 9.99975 20.7492Z" fill="black"/>
</svg>
