<svg width="100" height="100" viewBox="0 0 100 100" fill="none" xmlns="http://www.w3.org/2000/svg">
<g clip-path="url(#clip0_2035_4264)">
<path d="M50 90.625C72.4366 90.625 90.625 72.4366 90.625 50C90.625 27.5634 72.4366 9.375 50 9.375C27.5634 9.375 9.375 27.5634 9.375 50C9.375 72.4366 27.5634 90.625 50 90.625Z" fill="#078D1D"/>
<path fill-rule="evenodd" clip-rule="evenodd" d="M44.6427 59.1951L66.5399 37.2979C67.76 36.0778 69.7395 36.0778 70.9595 37.2979C72.1796 38.518 72.1796 40.4974 70.9595 41.7175L46.8525 65.8246C45.6324 67.0446 43.653 67.0446 42.4329 65.8246L29.0401 52.4317C27.82 51.2117 27.82 49.2322 29.0401 48.0121C30.2601 46.792 32.2396 46.792 33.4597 48.0121L44.6427 59.1951Z" fill="white"/>
</g>
<defs>
<clipPath id="clip0_2035_4264">
<rect width="100" height="100" fill="white"/>
</clipPath>
</defs>
</svg>
