<svg width="24" height="24" viewBox="0 0 24 24" fill="none" xmlns="http://www.w3.org/2000/svg">
<path d="M12.4214 17.1964C12.3348 17.2831 12.2383 17.325 12.1 17.325C11.9617 17.325 11.8652 17.2831 11.7786 17.1964C11.6919 17.1098 11.65 17.0133 11.65 16.875C11.65 16.7367 11.6919 16.6402 11.7786 16.5536C11.8652 16.4669 11.9617 16.425 12.1 16.425C12.2383 16.425 12.3348 16.4669 12.4214 16.5536C12.5081 16.6402 12.55 16.7367 12.55 16.875C12.55 17.0133 12.5081 17.1098 12.4214 17.1964ZM12.2232 13.675H11.7503C11.7933 13.2774 11.8891 12.9686 12.0221 12.7347C12.2274 12.3737 12.5549 11.9878 13.0246 11.5803C13.4631 11.2116 13.8156 10.8405 14.066 10.4648C14.3337 10.0634 14.475 9.62194 14.475 9.15C14.475 8.529 14.2426 7.99442 13.7805 7.58732C13.3206 7.18214 12.736 7 12.075 7C11.4842 7 10.9475 7.1543 10.487 7.47876C10.1623 7.70751 9.90059 7.99941 9.69924 8.34596L9.31213 8.19988C9.54949 7.79385 9.86519 7.46467 10.261 7.20608C10.7971 6.85584 11.421 6.675 12.15 6.675C13.002 6.675 13.6337 6.91139 14.0975 7.34159C14.5571 7.76786 14.8 8.33639 14.8 9.1C14.8 9.52503 14.7086 9.90349 14.5314 10.2443C14.3555 10.5827 14.0409 10.958 13.5554 11.3655C12.9745 11.8441 12.5372 12.3358 12.3839 12.8428C12.3041 13.1068 12.251 13.3846 12.2232 13.675ZM12 21.5C10.6993 21.5 9.47523 21.2506 8.3231 20.7534C7.16259 20.2526 6.15329 19.5712 5.29105 18.7089C4.42882 17.8467 3.74735 16.8374 3.24658 15.6769C2.74943 14.5248 2.5 13.3007 2.5 12C2.5 10.6817 2.74976 9.44946 3.24658 8.2981C3.74718 7.13799 4.42818 6.13352 5.28942 5.28018C6.15181 4.4257 7.16163 3.74777 8.3231 3.24658C9.47523 2.74943 10.6993 2.5 12 2.5C13.3183 2.5 14.5505 2.74976 15.7019 3.24658C16.863 3.74759 17.868 4.42507 18.7214 5.27855C19.5749 6.13204 20.2524 7.13703 20.7534 8.2981C21.2502 9.44946 21.5 10.6817 21.5 12C21.5 13.3007 21.2506 14.5248 20.7534 15.6769C20.2522 16.8384 19.5743 17.8482 18.7198 18.7106C17.8665 19.5718 16.862 20.2528 15.7019 20.7534C14.5505 21.2502 13.3183 21.5 12 21.5ZM12 21C14.498 21 16.6344 20.119 18.3794 18.3652C20.1231 16.6127 21 14.4815 21 12C21 9.50284 20.1238 7.3667 18.3786 5.62145C16.6333 3.87619 14.4972 3 12 3C9.51851 3 7.38735 3.87686 5.63484 5.62056C3.88096 7.36562 3 9.50204 3 12C3 14.4823 3.88163 16.6137 5.63395 18.3661C7.38626 20.1184 9.5177 21 12 21Z" fill="black" stroke="black"/>
</svg>
