<svg width="24" height="15" viewBox="0 0 24 15" fill="none" xmlns="http://www.w3.org/2000/svg">
<g opacity="0.8">
<path d="M15.2446 13.2534L8.75355 13.2534L8.75355 1.58783L15.2446 1.58783L15.2446 13.2534Z" fill="#FF5F00"/>
<path d="M9.16948 7.42017C9.16948 5.05374 10.2775 2.9458 12.0029 1.58736C10.7411 0.593996 9.14873 0.00109382 7.41813 0.00109382C3.32111 0.00109382 -1.22558e-09 3.32267 -7.89527e-10 7.42017C-3.53478e-10 11.5177 3.32111 14.8392 7.41813 14.8392C9.14873 14.8392 10.7411 14.2463 12.0029 13.253C10.2775 11.8945 9.16948 9.78659 9.16948 7.42017Z" fill="#EB001B"/>
<path d="M23.9999 7.41821C23.9999 11.5157 20.6788 14.8373 16.5818 14.8373C14.8512 14.8373 13.2588 14.2444 11.9966 13.251C13.7225 11.8926 14.8304 9.78464 14.8304 7.41821C14.8304 5.05179 13.7225 2.94385 11.9966 1.5854C13.2588 0.592043 14.8512 -0.000859225 16.5818 -0.000859225C20.6788 -0.000859224 23.9999 3.32072 23.9999 7.41821Z" fill="#F79E1B"/>
</g>
</svg>
