<svg width="24" height="8" viewBox="0 0 24 8" fill="none" xmlns="http://www.w3.org/2000/svg">
<path d="M22.4118 0.121099H20.9071C20.4365 0.121099 20.0825 0.251981 19.8822 0.714743L16.9939 7.30092H19.0436C19.0436 7.30092 19.3837 6.41746 19.4536 6.23049H21.9506C22.0111 6.47823 22.1882 7.30092 22.1882 7.30092H24.0003L22.4118 0.121099ZM20.0126 4.75807C20.171 4.34672 20.7766 2.74342 20.7766 2.74342C20.7766 2.74342 20.9443 2.32272 21.0422 2.06563L21.1726 2.68265C21.1726 2.68265 21.5499 4.39347 21.6245 4.75807H20.0126Z" fill="#252AA3"/>
<path d="M14.3956 2.11749C14.391 2.44937 14.8149 2.67373 15.495 3.00561C16.6178 3.51979 17.1395 4.13681 17.1255 4.9595C17.1162 6.45062 15.7839 7.41354 13.7388 7.41354C12.8629 7.40419 12.0244 7.22656 11.5679 7.03024L11.8427 5.42226L12.0896 5.53444C12.7278 5.80088 13.1471 5.91307 13.9251 5.91307C14.4841 5.91307 15.0851 5.69337 15.0944 5.21191C15.0991 4.89406 14.8382 4.66969 14.0835 4.31911C13.3381 3.97788 12.3598 3.40294 12.3738 2.37458C12.3831 0.981616 13.7434 0 15.6674 0C16.4221 0 17.0324 0.158928 17.4144 0.303833L17.1488 1.85572L16.9718 1.77626C16.6084 1.63135 16.1472 1.4958 15.509 1.50047C14.7497 1.4958 14.3956 1.81833 14.3956 2.11749Z" fill="#252AA3"/>
<path d="M11.558 0.126958L10.3422 7.3021H8.39487L8.63246 5.90914L9.01912 3.61871L9.6061 0.131633L11.558 0.126958Z" fill="#252AA3"/>
<path d="M4.56075 3.82383C3.90855 2.16443 2.35258 0.785493 0 0.215221L0.0232943 0.0703154H3.04671C3.45667 0.0890128 3.78743 0.215221 3.89924 0.654611L4.56075 3.82383Z" fill="#252AA3"/>
<path d="M8.81851 0.134771L5.74851 7.29589H3.68943L1.94246 1.31271C3.19562 2.12137 4.26243 3.40215 4.63978 4.29028L4.84476 5.0335L6.75476 0.134771H8.81851Z" fill="#252AA3"/>
</svg>
