<svg width="376" height="359" viewBox="0 0 376 359" fill="none" xmlns="http://www.w3.org/2000/svg">
<path d="M264.732 15.2983C295.569 34.252 306.357 74.4422 324.854 107.033C344.054 140.861 381.58 171.067 375.3 210.111C368.913 249.824 322.156 263.477 295.187 291.485C273.824 313.671 261.978 349.493 233.249 357.631C204.815 365.685 179.28 335.705 150.016 332.608C115.724 328.978 78.2896 357.385 48.8665 338.115C19.8525 319.113 15.8761 275.592 8.52929 239.945C1.25508 204.65 -5.46957 167.395 6.7385 133.71C18.8048 100.415 48.2567 79.9818 74.4691 57.9971C100.803 35.9105 126.928 12.8172 159.629 5.47848C194.764 -2.4066 233.576 -3.85173 264.732 15.2983Z" fill="#FFE2D3"/>
</svg>
