<svg width="24" height="24" viewBox="0 0 24 24" fill="none" xmlns="http://www.w3.org/2000/svg">
<path d="M20.1902 14.0608L19.0602 12.1808C18.8102 11.7708 18.5902 10.9808 18.5902 10.5008V8.63078C18.5902 5.00078 15.6402 2.05078 12.0202 2.05078C8.3902 2.06078 5.4402 5.00078 5.4402 8.63078V10.4908C5.4402 10.9708 5.2202 11.7608 4.9802 12.1708L3.8502 14.0508C3.4202 14.7808 3.3202 15.6108 3.5902 16.3308C3.8602 17.0608 4.4702 17.6408 5.2702 17.9008C6.3502 18.2608 7.4402 18.5208 8.5502 18.7108C8.6602 18.7308 8.7702 18.7408 8.8802 18.7608C9.0202 18.7808 9.1702 18.8008 9.3202 18.8208C9.5802 18.8608 9.8402 18.8908 10.1102 18.9108C10.7402 18.9708 11.3802 19.0008 12.0202 19.0008C12.6502 19.0008 13.2802 18.9708 13.9002 18.9108C14.1302 18.8908 14.3602 18.8708 14.5802 18.8408C14.7602 18.8208 14.9402 18.8008 15.1202 18.7708C15.2302 18.7608 15.3402 18.7408 15.4502 18.7208C16.5702 18.5408 17.6802 18.2608 18.7602 17.9008C19.5302 17.6408 20.1202 17.0608 20.4002 16.3208C20.6802 15.5708 20.6002 14.7508 20.1902 14.0608ZM12.7502 10.0008C12.7502 10.4208 12.4102 10.7608 11.9902 10.7608C11.5702 10.7608 11.2302 10.4208 11.2302 10.0008V6.90078C11.2302 6.48078 11.5702 6.14078 11.9902 6.14078C12.4102 6.14078 12.7502 6.48078 12.7502 6.90078V10.0008Z" fill="black"/>
<path d="M14.8297 20.01C14.4097 21.17 13.2997 22 11.9997 22C11.2097 22 10.4297 21.68 9.87969 21.11C9.55969 20.81 9.31969 20.41 9.17969 20C9.30969 20.02 9.43969 20.03 9.57969 20.05C9.80969 20.08 10.0497 20.11 10.2897 20.13C10.8597 20.18 11.4397 20.21 12.0197 20.21C12.5897 20.21 13.1597 20.18 13.7197 20.13C13.9297 20.11 14.1397 20.1 14.3397 20.07C14.4997 20.05 14.6597 20.03 14.8297 20.01Z" fill="black"/>
</svg>
