<svg width="16" height="16" viewBox="0 0 16 16" fill="none" xmlns="http://www.w3.org/2000/svg">
<path d="M7.59932 3.8526L7.99967 4.38773L8.40003 3.8526C8.98343 3.0728 9.91791 2.56641 10.9597 2.56641C12.7279 2.56641 14.1663 4.00688 14.1663 5.79307C14.1663 6.53203 14.0485 7.21349 13.8439 7.84583L13.8429 7.84908C13.352 9.40245 12.344 10.6602 11.2479 11.6022C10.1497 12.5461 8.99175 13.148 8.25195 13.3997L8.25194 13.3997L8.2466 13.4016C8.20342 13.4168 8.11393 13.4331 7.99967 13.4331C7.88542 13.4331 7.79593 13.4168 7.75275 13.4016L7.75276 13.4015L7.7474 13.3997C7.0076 13.148 5.84967 12.5461 4.7514 11.6022C3.65533 10.6602 2.6473 9.40245 2.15644 7.84908L2.15645 7.84908L2.1554 7.84583C1.95082 7.21349 1.83301 6.53203 1.83301 5.79307C1.83301 4.00688 3.27148 2.56641 5.03967 2.56641C6.08144 2.56641 7.01592 3.0728 7.59932 3.8526Z" fill="black" stroke="black"/>
</svg>
