<svg width="80" height="80" viewBox="0 0 80 80" fill="none" xmlns="http://www.w3.org/2000/svg">
<path d="M47.5052 53.1177C47.3961 52.9257 47.2381 52.7661 47.0473 52.6551C46.8564 52.544 46.6396 52.4855 46.4188 52.4854H6.25035C6.03352 52.488 5.82106 52.5467 5.63355 52.6556C5.44604 52.7645 5.28983 52.92 5.18006 53.107C5.0703 53.294 5.01069 53.5062 5.00702 53.723C5.00334 53.9398 5.05573 54.1539 5.1591 54.3445L12.6438 67.7441C13.0878 68.557 13.7404 69.2369 14.5345 69.7136C15.3286 70.1904 16.2354 70.4468 17.1616 70.4565H55.2201C55.4388 70.4565 55.6537 70.3992 55.8432 70.2901C56.0328 70.1811 56.1905 70.0242 56.3004 69.8352C56.4104 69.6461 56.4688 69.4315 56.4699 69.2128C56.471 68.9941 56.4146 68.779 56.3065 68.5889L47.5052 53.1177ZM17.1616 67.9565C16.6804 67.9469 16.2104 67.8093 15.8 67.5578C15.3896 67.3064 15.0536 66.9502 14.8264 66.5259L8.38048 54.9854H45.6913L53.0704 67.9565H17.1616Z" fill="black"/>
<path d="M74.3306 51.1064L53.2063 12.3979C52.7357 11.534 52.0407 10.8129 51.1948 10.3107C50.3488 9.80842 49.383 9.54354 48.3992 9.54395H32.2298C32.0115 9.5467 31.7978 9.60612 31.6095 9.71637C31.4211 9.82662 31.2647 9.98392 31.1554 10.1729C31.0462 10.3618 30.9879 10.5759 30.9864 10.7941C30.9848 11.0123 31.0399 11.2272 31.1464 11.4177L64.7676 69.8308C64.8783 70.023 65.0381 70.1823 65.2307 70.2923C65.4233 70.4023 65.6417 70.4591 65.8635 70.4569C66.0853 70.4547 66.3025 70.3935 66.4928 70.2796C66.6832 70.1657 66.8398 70.0032 66.9466 69.8088L74.3245 56.3652C74.7684 55.5601 75.0017 54.6559 75.0028 53.7366C75.0038 52.8172 74.7726 51.9125 74.3306 51.1064ZM72.1321 55.1616L65.8247 66.6557L34.3916 12.0439H48.3992C48.9339 12.0437 49.4588 12.1877 49.9186 12.4607C50.3783 12.7338 50.7559 13.1258 51.0115 13.5954L72.1358 52.3039C72.3761 52.7419 72.5017 53.2336 72.5011 53.7332C72.5004 54.2328 72.3735 54.7242 72.1321 55.1616Z" fill="black"/>
<path d="M10.3438 46.6833H42.474C42.6949 46.6805 42.9112 46.6196 43.1012 46.5067C43.2911 46.3938 43.4481 46.2329 43.5562 46.0402C43.6643 45.8475 43.7198 45.6297 43.7171 45.4088C43.7144 45.1878 43.6536 44.9715 43.5408 44.7814L27.4759 18.4619C27.356 18.29 27.1964 18.1497 27.0107 18.0528C26.8249 17.9559 26.6185 17.9053 26.409 17.9053C26.1995 17.9053 25.9931 17.9559 25.8073 18.0528C25.6216 18.1497 25.462 18.29 25.3421 18.4619L9.27696 44.7815C9.16417 44.9715 9.10338 45.1879 9.10068 45.4088C9.09798 45.6298 9.15348 45.8475 9.26159 46.0403C9.3697 46.233 9.52662 46.3939 9.71659 46.5067C9.90656 46.6196 10.1229 46.6805 10.3438 46.6833ZM26.4089 21.5125L40.2468 44.1833H12.571L26.4089 21.5125Z" fill="black"/>
</svg>
