<svg width="376" height="359" viewBox="0 0 376 359" fill="none" xmlns="http://www.w3.org/2000/svg">
<path d="M250.36 14.2491C273.754 18.8049 300.838 11.4434 320.372 25.301C339.5 38.8705 343.858 65.691 353.384 87.3356C362.613 108.305 376.36 128.715 375.993 151.684C375.627 174.6 356.747 192.831 351.344 215.081C345.799 237.913 355.675 264.472 343.713 284.602C331.893 304.492 307.282 311.936 287.195 323.029C267.875 333.7 248.238 343.222 227.012 349.056C205.048 355.093 182.404 361.5 159.912 358.012C137.323 354.51 115.662 344.052 98.19 329.082C81.2582 314.575 75.2614 291.093 61.3572 273.573C47.1611 255.686 25.2856 244.559 14.9054 224.142C4.15217 202.99 -2.5957 178.292 0.95178 154.757C4.49157 131.273 24.3543 114.279 34.6782 92.9652C44.9527 71.7532 44.54 43.8666 62.147 28.4178C79.8544 12.8809 106.445 14.9771 129.305 9.9376C149.75 5.43027 169.862 -0.682568 190.769 0.0620717C211.333 0.794453 230.151 10.3136 250.36 14.2491Z" fill="#FBE9D8"/>
</svg>
