<svg width="375" height="367" viewBox="0 0 375 367" fill="none" xmlns="http://www.w3.org/2000/svg">
<path d="M259.35 6.38581C283.55 18.3399 290.912 49.1466 308.751 69.3929C326.108 89.0931 352.381 100.987 363.61 124.716C375.056 148.905 377.739 177.442 372.273 203.636C366.939 229.198 344.584 247.052 333.181 270.546C321.098 295.44 323.556 328.526 302.78 346.815C282.169 364.958 251.206 365.298 223.783 366.845C198.46 368.273 174.433 359.489 149.391 355.464C123.596 351.317 95.5988 355.605 72.9452 342.599C50.0084 329.43 34.9293 305.864 22.4252 282.569C10.1826 259.762 3.88316 234.519 1.11586 208.786C-1.6316 183.238 0.918768 157.843 6.31032 132.718C11.99 106.251 15.1279 76.9418 33.6479 57.1879C52.1507 37.4525 81.7266 34.0992 107.236 25.0689C131.02 16.6495 154.469 8.62782 179.513 5.5519C206.22 2.27167 235.229 -5.52979 259.35 6.38581Z" fill="#D9ECFF"/>
</svg>
