<svg width="20" height="23" viewBox="0 0 20 23" fill="none" xmlns="http://www.w3.org/2000/svg">
<path fill-rule="evenodd" clip-rule="evenodd" d="M8.54782 5.41406H15.2416C18.8355 5.41406 20.1884 7.17738 19.9793 9.76794C19.6338 14.0448 16.966 16.4109 13.4273 16.4109H11.6407C11.1552 16.4109 10.8286 16.7224 10.6973 17.5664L9.93875 22.4729C9.88864 22.791 9.71586 22.9753 9.45668 23.0004H5.25107C4.85539 23.0004 4.71543 22.7073 4.8191 22.0727L7.38325 6.34345C7.48346 5.71381 7.8394 5.41406 8.54782 5.41406Z" fill="#009EE3"/>
<path fill-rule="evenodd" clip-rule="evenodd" d="M4.36083 0H11.0615C12.9483 0 15.1876 0.0586098 16.6839 1.33965C17.6843 2.19536 18.2096 3.55678 18.0887 5.0237C17.6774 9.9821 14.6174 12.7602 10.512 12.7602H7.20834C6.64505 12.7602 6.27356 13.1219 6.1146 14.0999L5.19193 19.7934C5.13145 20.1618 4.9673 20.3795 4.67357 20.4063H0.538802C0.080919 20.4063 -0.0815013 20.0714 0.037721 19.3312L3.00964 1.08177C3.12886 0.348309 3.54528 0 4.36083 0Z" fill="#113984"/>
<path fill-rule="evenodd" clip-rule="evenodd" d="M6.21191 13.524L7.38168 6.34513C7.48362 5.71549 7.83956 5.41406 8.54798 5.41406H15.2417C16.3493 5.41406 17.246 5.58152 17.9475 5.89132C17.2754 10.3055 14.3294 12.757 10.4728 12.757H7.17433C6.732 12.7587 6.40716 12.9731 6.21191 13.524Z" fill="#172C70"/>
</svg>
