<svg width="24" height="15" viewBox="0 0 24 15" fill="none" xmlns="http://www.w3.org/2000/svg">
<g opacity="0.8">
<path d="M15.2453 13.254L8.75391 13.254L8.75391 1.58789L15.2453 1.58789L15.2453 13.254Z" fill="#FF5F00"/>
<path d="M9.16986 7.42047C9.16986 5.05395 10.2779 2.94592 12.0034 1.58742C10.7416 0.59402 9.1491 0.00109386 7.41843 0.00109386C3.32124 0.00109386 -1.50978e-09 3.32281 -9.72615e-10 7.42047C-4.35448e-10 11.5181 3.32124 14.8398 7.41843 14.8398C9.1491 14.8398 10.7416 14.2469 12.0034 13.2535C10.2779 11.895 9.16986 9.78699 9.16986 7.42047Z" fill="#EB001B"/>
<path d="M24.0009 7.41852C24.0009 11.5162 20.6797 14.8379 16.5825 14.8379C14.8518 14.8379 13.2593 14.245 11.9971 13.2516C13.723 11.8931 14.831 9.78504 14.831 7.41852C14.831 5.05199 13.723 2.94396 11.9971 1.58547C13.2593 0.592067 14.8518 -0.00085926 16.5825 -0.00085926C20.6797 -0.000859259 24.0009 3.32085 24.0009 7.41852Z" fill="#F79E1B"/>
</g>
</svg>
