<svg width="24" height="8" viewBox="0 0 24 8" fill="none" xmlns="http://www.w3.org/2000/svg">
<path d="M22.4109 0.121094H20.9062C20.4357 0.121094 20.0817 0.251971 19.8814 0.714714L16.9932 7.30062H19.0428C19.0428 7.30062 19.3829 6.4172 19.4528 6.23024H21.9497C22.0102 6.47797 22.1873 7.30062 22.1873 7.30062H23.9994L22.4109 0.121094ZM20.0118 4.75787C20.1702 4.34655 20.7758 2.7433 20.7758 2.7433C20.7758 2.7433 20.9435 2.32263 21.0413 2.06555L21.1717 2.68254C21.1717 2.68254 21.5491 4.39329 21.6236 4.75787H20.0118Z" fill="#252AA3"/>
<path d="M14.395 2.1174C14.3904 2.44927 14.8143 2.67363 15.4944 3.00549C16.6171 3.51965 17.1388 4.13664 17.1248 4.9593C17.1155 6.45036 15.7832 7.41324 13.7382 7.41324C12.8624 7.40389 12.0239 7.22627 11.5674 7.02995L11.8422 5.42204L12.0891 5.53422C12.7273 5.80065 13.1466 5.91283 13.9245 5.91283C14.4835 5.91283 15.0845 5.69314 15.0938 5.2117C15.0984 4.89386 14.8376 4.6695 14.0829 4.31893C13.3376 3.97772 12.3593 3.4028 12.3733 2.37448C12.3826 0.981576 13.7428 0 15.6668 0C16.4214 0 17.0317 0.158922 17.4137 0.303821L17.1481 1.85565L16.9711 1.77619C16.6078 1.63129 16.1466 1.49573 15.5084 1.50041C14.7491 1.49573 14.395 1.81825 14.395 2.1174Z" fill="#252AA3"/>
<path d="M11.5576 0.126953L10.3417 7.30181H8.39453L8.63211 5.9089L9.01875 3.61856L9.60571 0.131627L11.5576 0.126953Z" fill="#252AA3"/>
<path d="M4.56057 3.82367C3.90839 2.16434 2.35249 0.785461 0 0.215212L0.0232934 0.0703125H3.04659C3.45653 0.0890092 3.78728 0.215212 3.89908 0.654584L4.56057 3.82367Z" fill="#252AA3"/>
<path d="M8.81816 0.134766L5.74828 7.2956H3.68928L1.94238 1.31266C3.19549 2.12129 4.26226 3.40201 4.63959 4.2901L4.84456 5.0333L6.75449 0.134766H8.81816Z" fill="#252AA3"/>
</svg>
